<svg width="104.727295" height="64.000000" viewBox="0 0 104.727 64" fill="none" xmlns="http://www.w3.org/2000/svg" xmlns:xlink="http://www.w3.org/1999/xlink">
	<desc>
			Created with Pixso.
	</desc>
	<defs>
		<clipPath id="clip327_535">
			<rect id="icon-tailwindcss" rx="0.000000" width="103.727272" height="63.000000" transform="translate(0.500000 0.500000)" fill="white" fill-opacity="0"/>
		</clipPath>
	</defs>
	<rect id="icon-tailwindcss" rx="0.000000" width="103.727272" height="63.000000" transform="translate(0.500000 0.500000)" fill="#FFFFFF" fill-opacity="0"/>
	<g clip-path="url(#clip327_535)">
		<mask id="mask327_537" mask-type="alpha" maskUnits="userSpaceOnUse" x="0.000000" y="0.000000" width="104.727295" height="62.836426">
			<path id="Vector" d="M0 0L104.72 0L104.72 62.83L0 62.83L0 0Z" fill="#000000" fill-opacity="1.000000" fill-rule="nonzero"/>
		</mask>
		<g mask="url(#mask327_537)">
			<path id="Vector" d="M52.36 0C38.39 0 29.67 6.98 26.18 20.94C31.41 13.96 37.52 11.34 44.5 13.09C48.49 14.08 51.33 16.97 54.49 20.17C59.62 25.38 65.56 31.41 78.54 31.41C92.5 31.41 101.23 24.43 104.72 10.47C99.49 17.45 93.38 20.07 86.39 18.32C82.41 17.33 79.56 14.44 76.41 11.24C71.28 6.03 65.34 0 52.36 0ZM26.18 31.41C12.21 31.41 3.49 38.39 0 52.36C5.23 45.38 11.34 42.76 18.32 44.5C22.31 45.5 25.15 48.39 28.3 51.59C33.44 56.8 39.38 62.83 52.36 62.83C66.32 62.83 75.05 55.85 78.54 41.89C73.3 48.87 67.19 51.49 60.21 49.74C56.23 48.75 53.38 45.85 50.23 42.66C45.1 37.44 39.16 31.41 26.18 31.41Z" fill="#38BDF8" fill-opacity="1.000000" fill-rule="evenodd"/>
		</g>
	</g>
</svg>
